<svg version="1.1" xmlns="http://www.w3.org/2000/svg" xmlns:xlink="http://www.w3.org/1999/xlink" width="500" height="500"><g data-paper-data="{&quot;description&quot;:&quot;Logo for Don't Look!! QR\n========================\n\nThis logo was generated by MarkMaker at http://emblemmatic.org/markmaker/ and may be composed of elements designed by others.\n\nThe font is Exo Medium Italic designed by Natanael Gama and released under the OFL license via Google Fonts: https://www.google.com/fonts/specimen/Exo. The font includes this copyright statement: Copyright (c) 2011 Natanael Gama (exo@ndiscovered.com), with Reserved Font Name \\\&quot;Exo\\\n\nMarkMaker uses semantic data from the Princeton University WordNet database http://wordnet.princeton.edu and font descriptions from Google Fonts https://www.google.com/fonts.&quot;}" fill="none" fill-rule="nonzero" stroke="none" stroke-width="1" stroke-linecap="butt" stroke-linejoin="miter" stroke-miterlimit="10" stroke-dasharray="" stroke-dashoffset="0" font-family="none" font-weight="none" font-size="none" text-anchor="none" style="mix-blend-mode: normal"><g data-paper-data="{&quot;elementType&quot;:&quot;logo&quot;}"><g data-paper-data="{&quot;elementType&quot;:&quot;text&quot;}"><g data-paper-data="{&quot;baseline&quot;:78.2}"><g data-paper-data="{&quot;baselineProportion&quot;:0.9932157394843962,&quot;fontSize&quot;:100,&quot;baseline&quot;:73.2,&quot;elementType&quot;:&quot;word&quot;}" fill="#c90157"><path d="M78.44018,80.50403c5.18403,0 8.92806,1.60801 11.23207,4.82403c2.30401,3.12002 3.57602,6.69604 3.81602,10.72807c0.096,1.24801 0.144,2.35201 0.144,3.31202c0,2.73602 -0.24,5.42403 -0.72,8.06405c-1.39201,8.35205 -3.90002,14.73609 -7.52405,19.15212c-3.62402,4.41603 -8.65205,6.62404 -15.08409,6.62404h-20.30413l8.35205,-52.63233c0,-0.048 6.69604,-0.072 20.08813,-0.072M70.95213,126.72832c2.73602,0 5.20803,-0.93601 7.41605,-2.80802c4.03203,-3.40802 6.69604,-9.04806 7.99205,-16.92011c0.48,-3.02402 0.72,-5.88004 0.72,-8.56805c0,-7.77605 -3.31202,-11.66407 -9.93606,-11.66407h-13.17608l-6.33604,39.96025z" data-paper-data="{&quot;elementType&quot;:&quot;letter&quot;,&quot;baseline&quot;:73.2,&quot;baselineProportion&quot;:1,&quot;fontSize&quot;:100}"></path><path d="M119.76844,94.61611c6.04804,0 10.17606,1.63201 12.38408,4.89603c1.44001,2.20801 2.16001,5.18403 2.16001,8.92806c0,1.92001 -0.192,4.08003 -0.576,6.48004c-1.15201,7.15204 -3.08402,12.04808 -5.79604,14.68809c-2.71202,2.64002 -7.21205,3.96002 -13.50008,3.96002c-6.28804,0 -10.58407,-1.48801 -12.88808,-4.46403c-1.53601,-2.01601 -2.30401,-4.94403 -2.30401,-8.78406c0,-1.77601 0.24,-4.20003 0.72,-7.27205c0.48,-3.07202 1.18801,-5.86804 2.12401,-8.38805c0.93601,-2.52002 2.22001,-4.53603 3.85202,-6.04804c1.63201,-1.51201 3.51602,-2.55602 5.65204,-3.13202c2.13601,-0.576 4.86003,-0.86401 8.17205,-0.86401M107.81636,108.3682c-1.34401,4.17603 -2.01601,8.37605 -2.01601,12.60008c0,1.68001 0.48,3.16802 1.44001,4.46403c1.00801,1.39201 3.50402,2.06401 7.48805,2.01601c2.92802,0 5.04003,-0.288 6.33604,-0.86401c1.29601,-0.576 2.25601,-1.33201 2.88002,-2.26801c0.624,-0.93601 1.21201,-2.19601 1.76401,-3.78002c0.552,-1.58401 1.02001,-3.55202 1.40401,-5.90404c0.432,-2.54402 0.648,-4.59603 0.648,-6.15604c0,-1.56001 -0.132,-2.85602 -0.396,-3.88802c-0.264,-1.03201 -0.792,-1.83601 -1.58401,-2.41202c-0.792,-0.576 -1.71601,-0.97201 -2.77202,-1.18801c-1.05601,-0.216 -2.40002,-0.324 -4.03203,-0.324c-1.63201,0 -2.96402,0.084 -3.99603,0.252c-1.03201,0.168 -2.04001,0.516 -3.02402,1.04401c-0.98401,0.528 -1.78801,1.30801 -2.41202,2.34001c-0.624,1.03201 -1.20001,2.38802 -1.72801,4.06803z" data-paper-data="{&quot;elementType&quot;:&quot;letter&quot;,&quot;baseline&quot;:53.6,&quot;baselineProportion&quot;:0.9907578558225508,&quot;fontSize&quot;:100}"></path><path d="M167.07274,94.32811c3.74402,0 6.43204,1.20001 8.06405,3.60002c1.20001,1.82401 1.80001,3.93602 1.80001,6.33604c0,0.81601 -0.072,1.68001 -0.216,2.59202l-4.17603,26.35217h-6.62404l4.17603,-26.35217c0.096,-0.576 0.144,-1.33201 0.144,-2.26801c0,-0.93601 -0.384,-1.87201 -1.15201,-2.80802c-0.768,-0.93601 -2.20801,-1.40401 -4.32003,-1.40401c-2.11201,0 -4.03203,0.288 -5.76004,0.86401c-1.72801,0.576 -4.10403,1.58401 -7.12804,3.02402l-4.60803,28.94418h-6.62404l6.04804,-38.23224h4.96803l0.93601,4.39203c0.192,-0.144 0.636,-0.408 1.33201,-0.792c0.696,-0.384 1.15201,-0.624 1.36801,-0.72c0.216,-0.096 0.648,-0.324 1.29601,-0.684c0.648,-0.36 1.11601,-0.588 1.40401,-0.684c0.288,-0.096 0.732,-0.276 1.33201,-0.54c0.6,-0.264 1.08001,-0.456 1.44001,-0.576c0.36,-0.12 0.82801,-0.264 1.40401,-0.432c0.576,-0.168 1.10401,-0.276 1.58401,-0.324c1.29601,-0.192 2.40002,-0.288 3.31202,-0.288z" data-paper-data="{&quot;elementType&quot;:&quot;letter&quot;,&quot;baseline&quot;:54,&quot;baselineProportion&quot;:1,&quot;fontSize&quot;:100}"></path><path d="M185.36085,94.97612l0.72,-9.64806l0.792,-4.82403h6.69604l-0.792,4.82403l-2.23201,9.64806z" data-paper-data="{&quot;elementType&quot;:&quot;letter&quot;,&quot;baseline&quot;:73.2,&quot;baselineProportion&quot;:3.6417910447761193,&quot;fontSize&quot;:100}"></path><path d="M210.20101,133.20836c-5.80804,0 -8.71205,-3.14402 -8.71205,-9.43206c0,-1.29601 0.12,-2.68802 0.36,-4.17603l2.88002,-18.72012h-6.84004l0.72,-4.46403l7.12804,-1.51201l3.02402,-10.65607h5.25603l-1.65601,10.65607h10.44007l-1.00801,5.97604h-10.44007l-2.88002,18.28811c-0.528,3.74402 -0.384,6.04804 0.432,6.91204c0.432,0.48 1.75201,1.02001 3.96002,1.62001c2.20801,0.6 3.36002,0.90001 3.45602,0.90001l-0.648,4.60803z" data-paper-data="{&quot;elementType&quot;:&quot;letter&quot;,&quot;baseline&quot;:68,&quot;baselineProportion&quot;:1,&quot;fontSize&quot;:100}"></path></g><g data-paper-data="{&quot;baselineProportion&quot;:0.9936467598475223,&quot;fontSize&quot;:100,&quot;baseline&quot;:78.2,&quot;elementType&quot;:&quot;word&quot;}" fill="#081415"><path d="M262.22282,126.80032h20.95213l-1.00801,6.40804h-22.03214c-2.83202,0 -5.00403,-0.672 -6.51604,-2.01601c-1.51201,-1.34401 -2.26801,-3.09602 -2.26801,-5.25603c0,-0.672 0.048,-1.36801 0.144,-2.08801l6.98404,-43.34427h6.62404l-6.84004,42.55227c-0.288,1.82401 0.048,2.92802 1.00801,3.31202c0.72,0.288 1.70401,0.432 2.95202,0.432z" data-paper-data="{&quot;elementType&quot;:&quot;letter&quot;,&quot;baseline&quot;:73.2,&quot;baselineProportion&quot;:1,&quot;fontSize&quot;:100}"></path><path d="M309.02311,94.61611c6.04804,0 10.17606,1.63201 12.38408,4.89603c1.44001,2.20801 2.16001,5.18403 2.16001,8.92806c0,1.92001 -0.192,4.08003 -0.576,6.48004c-1.15201,7.15204 -3.08402,12.04808 -5.79604,14.68809c-2.71202,2.64002 -7.21205,3.96002 -13.50008,3.96002c-6.28804,0 -10.58407,-1.48801 -12.88808,-4.46403c-1.53601,-2.01601 -2.30401,-4.94403 -2.30401,-8.78406c0,-1.77601 0.24,-4.20003 0.72,-7.27205c0.48,-3.07202 1.18801,-5.86804 2.12401,-8.38805c0.93601,-2.52002 2.22001,-4.53603 3.85202,-6.04804c1.63201,-1.51201 3.51602,-2.55602 5.65204,-3.13202c2.13601,-0.576 4.86003,-0.86401 8.17205,-0.86401M297.07104,108.3682c-1.34401,4.17603 -2.01601,8.37605 -2.01601,12.60008c0,1.68001 0.48,3.16802 1.44001,4.46403c1.00801,1.39201 3.50402,2.06401 7.48805,2.01601c2.92802,0 5.04003,-0.288 6.33604,-0.86401c1.29601,-0.576 2.25601,-1.33201 2.88002,-2.26801c0.624,-0.93601 1.21201,-2.19601 1.76401,-3.78002c0.552,-1.58401 1.02001,-3.55202 1.40401,-5.90404c0.432,-2.54402 0.648,-4.59603 0.648,-6.15604c0,-1.56001 -0.132,-2.85602 -0.396,-3.88802c-0.264,-1.03201 -0.792,-1.83601 -1.58401,-2.41202c-0.792,-0.576 -1.71601,-0.97201 -2.77202,-1.18801c-1.05601,-0.216 -2.40002,-0.324 -4.03203,-0.324c-1.63201,0 -2.96402,0.084 -3.99603,0.252c-1.03201,0.168 -2.04001,0.516 -3.02402,1.04401c-0.98401,0.528 -1.78801,1.30801 -2.41202,2.34001c-0.624,1.03201 -1.20001,2.38802 -1.72801,4.06803z" data-paper-data="{&quot;elementType&quot;:&quot;letter&quot;,&quot;baseline&quot;:53.6,&quot;baselineProportion&quot;:0.9907578558225508,&quot;fontSize&quot;:100}"></path><path d="M351.35938,94.61611c6.04804,0 10.17606,1.63201 12.38408,4.89603c1.44001,2.20801 2.16001,5.18403 2.16001,8.92806c0,1.92001 -0.192,4.08003 -0.576,6.48004c-1.15201,7.15204 -3.08402,12.04808 -5.79604,14.68809c-2.71202,2.64002 -7.21205,3.96002 -13.50008,3.96002c-6.28804,0 -10.58407,-1.48801 -12.88808,-4.46403c-1.53601,-2.01601 -2.30401,-4.94403 -2.30401,-8.78406c0,-1.77601 0.24,-4.20003 0.72,-7.27205c0.48,-3.07202 1.18801,-5.86804 2.12401,-8.38805c0.93601,-2.52002 2.22001,-4.53603 3.85202,-6.04804c1.63201,-1.51201 3.51602,-2.55602 5.65204,-3.13202c2.13601,-0.576 4.86003,-0.86401 8.17205,-0.86401M339.40731,108.3682c-1.34401,4.17603 -2.01601,8.37605 -2.01601,12.60008c0,1.68001 0.48,3.16802 1.44001,4.46403c1.00801,1.39201 3.50402,2.06401 7.48805,2.01601c2.92802,0 5.04003,-0.288 6.33604,-0.86401c1.29601,-0.576 2.25601,-1.33201 2.88002,-2.26801c0.624,-0.93601 1.21201,-2.19601 1.76401,-3.78002c0.552,-1.58401 1.02001,-3.55202 1.40401,-5.90404c0.432,-2.54402 0.648,-4.59603 0.648,-6.15604c0,-1.56001 -0.132,-2.85602 -0.396,-3.88802c-0.264,-1.03201 -0.792,-1.83601 -1.58401,-2.41202c-0.792,-0.576 -1.71601,-0.97201 -2.77202,-1.18801c-1.05601,-0.216 -2.40002,-0.324 -4.03203,-0.324c-1.63201,0 -2.96402,0.084 -3.99603,0.252c-1.03201,0.168 -2.04001,0.516 -3.02402,1.04401c-0.98401,0.528 -1.78801,1.30801 -2.41202,2.34001c-0.624,1.03201 -1.20001,2.38802 -1.72801,4.06803z" data-paper-data="{&quot;elementType&quot;:&quot;letter&quot;,&quot;baseline&quot;:53.6,&quot;baselineProportion&quot;:0.9907578558225508,&quot;fontSize&quot;:100}"></path><path d="M372.23951,133.20836l8.92806,-56.30435h6.62404l-5.25603,33.12021c3.26402,-1.00801 6.80404,-3.09602 10.62007,-6.26404c3.81602,-3.16802 6.03604,-6.09604 6.66004,-8.78406h7.27205c-1.05601,3.69602 -3.26402,7.20005 -6.62404,10.51207c-3.36002,3.31202 -6.48004,5.64004 -9.36006,6.98404l13.68009,20.73613h-7.77605l-12.38408,-18.79212l-2.73602,0.072l-3.02402,18.72012z" data-paper-data="{&quot;elementType&quot;:&quot;letter&quot;,&quot;baseline&quot;:78.2,&quot;baselineProportion&quot;:1,&quot;fontSize&quot;:100}"></path><path d="M415.36778,118.88027l5.40003,-38.30424h7.48805l-6.76804,38.30424zM415.43978,125.00031h4.60803c1.10401,0 1.56001,0.6 1.36801,1.80001l-0.72,4.75203c-0.144,1.10401 -0.768,1.65601 -1.87201,1.65601h-4.60803c-0.528,0 -0.93601,-0.156 -1.22401,-0.468c-0.288,-0.312 -0.384,-0.708 -0.288,-1.18801l0.72,-4.75203c0.192,-1.20001 0.86401,-1.80001 2.01601,-1.80001" data-paper-data="{&quot;elementType&quot;:&quot;letter&quot;,&quot;baseline&quot;:73.10000000000001,&quot;baselineProportion&quot;:1,&quot;fontSize&quot;:100}"></path><path d="M437.11192,118.88027l5.40003,-38.30424h7.48805l-6.76804,38.30424zM437.18392,125.00031h4.60803c1.10401,0 1.56001,0.6 1.36801,1.80001l-0.72,4.75203c-0.144,1.10401 -0.768,1.65601 -1.87201,1.65601h-4.60803c-0.528,0 -0.93601,-0.156 -1.22401,-0.468c-0.288,-0.312 -0.384,-0.708 -0.288,-1.18801l0.72,-4.75203c0.192,-1.20001 0.86401,-1.80001 2.01601,-1.80001" data-paper-data="{&quot;elementType&quot;:&quot;letter&quot;,&quot;baseline&quot;:73.10000000000001,&quot;baselineProportion&quot;:1,&quot;fontSize&quot;:100}"></path></g></g><g data-paper-data="{&quot;baseline&quot;:328.60503363162115,&quot;elementType&quot;:&quot;row&quot;}" fill="#081415"><g data-paper-data="{&quot;baselineProportion&quot;:0.8280898876404494,&quot;fontSize&quot;:100,&quot;baseline&quot;:73.7,&quot;elementType&quot;:&quot;word&quot;}"><path d="M162.03852,137.38171c7.70465,0 14.44623,0.32103 20.22472,0.96308c5.77849,0.64205 11.61049,1.71215 17.49599,3.21027c5.8855,1.49813 10.91493,3.63831 15.08828,6.42055c4.17335,2.78224 8.1862,6.20653 12.03852,10.27287c6.63456,7.70465 11.12895,20.11771 13.48315,37.23917c0.85607,5.35045 1.28411,10.5939 1.28411,15.73034c0,14.55324 -1.2306,29.90904 -3.69181,46.06742c-2.46121,16.15837 -5.29695,29.90904 -8.50722,41.25201c-3.21027,11.34296 -6.63456,21.08079 -10.27287,29.21348c-3.63831,8.13269 -8.02568,15.08828 -13.16212,20.86677c-5.13644,5.77849 -10.21937,10.37988 -15.2488,13.80417c-5.02943,3.42429 -11.07544,6.09952 -18.13804,8.02568c-16.26538,4.49438 -36.27608,5.8855 -60.0321,4.17335c-12.19904,-0.85607 -21.24131,-2.56822 -27.12681,-5.13644c-5.8855,-2.56822 -10.75441,-5.40396 -14.60674,-8.50722c-3.85233,-3.10326 -7.0626,-6.68807 -9.63082,-10.75441c-7.49064,-12.19904 -11.23596,-28.46442 -11.23596,-48.79615c0,-24.18406 3.74532,-51.36437 11.23596,-81.54093c4.7084,-18.8336 11.34296,-35.313 19.90369,-49.4382c5.99251,-9.84484 14.87426,-17.97753 26.64526,-24.39807c10.91493,-5.77849 28.99946,-8.66774 54.25361,-8.66774M87.88122,233.6899c-5.77849,27.60835 -8.66774,50.50829 -8.66774,68.69984c0,20.11771 5.67148,32.9588 17.01445,38.52327c7.91867,3.85233 18.67309,5.77849 32.26324,5.77849c13.59016,0 24.18406,-1.07009 31.7817,-3.21027c7.59765,-2.14018 14.60674,-6.42055 21.02729,-12.84109c11.98502,-11.55698 20.86677,-35.74104 26.64526,-72.55217c2.78224,-17.76351 4.17335,-31.67469 4.17335,-41.73355c0,-10.05886 -0.58855,-17.38898 -1.76565,-21.99037c-1.1771,-4.60139 -2.4077,-8.45372 -3.69181,-11.55698c-1.28411,-3.10326 -3.31728,-5.72499 -6.09952,-7.86517c-2.78224,-2.14018 -5.29695,-3.79882 -7.54414,-4.97592c-2.24719,-1.1771 -5.51097,-2.08668 -9.79133,-2.72873c-5.77849,-0.85607 -12.25254,-1.28411 -19.42215,-1.28411c-7.16961,0 -12.19904,0.0535 -15.08828,0.16051c-2.88925,0.10701 -6.36704,0.37453 -10.43339,0.80257c-4.06635,0.42804 -7.33012,1.07009 -9.79133,1.92616c-2.46121,0.85607 -5.29695,2.03317 -8.50722,3.5313c-3.21027,1.49813 -5.8855,3.42429 -8.02568,5.77849c-2.14018,2.3542 -4.44088,5.18994 -6.90209,8.50722c-2.46121,3.31728 -4.6549,7.22311 -6.58106,11.7175c-4.7084,12.19904 -8.2397,23.97004 -10.5939,35.313M133.78812,384.57272c7.70465,7.91867 17.33547,11.87801 28.89246,11.87801c6.20653,0 14.01819,-1.60514 23.43499,-4.81541l-4.49438,28.57143c-5.35045,1.92616 -9.95185,2.88925 -13.80417,2.88925c-3.85233,0 -8.13269,-0.16051 -12.84109,-0.48154c-4.7084,-0.32103 -10.43339,-1.71215 -17.17496,-4.17335c-6.74157,-2.46121 -12.35955,-6.68807 -16.85393,-12.68058c-4.49438,-5.99251 -6.52755,-13.05511 -6.09952,-21.1878z" data-paper-data="{&quot;elementType&quot;:&quot;letter&quot;,&quot;baseline&quot;:73.7,&quot;baselineProportion&quot;:0.8280898876404494,&quot;fontSize&quot;:100}"></path><path d="M403.45104,138.98685c16.05136,0 28.35741,5.67148 36.91814,17.01445c6.42055,8.77475 9.63082,21.40182 9.63082,37.88122c0,23.11396 -4.06635,42.16158 -12.19904,57.14286c-7.70465,14.76726 -18.8336,23.542 -33.38684,26.32424c-1.71215,0.21402 -3.63831,0.53505 -5.77849,0.96308l33.70787,95.66613h-32.74478l-30.49759,-93.09791l-58.10594,-4.17335l-15.40931,97.27127h-29.53451l37.23917,-234.99197h100.16051M414.687,230.1586c2.14018,-5.56447 3.5313,-11.50348 4.17335,-17.81701c0.64205,-6.31354 0.96308,-11.98502 0.96308,-17.01445c0,-5.02943 -0.64205,-10.05886 -1.92616,-15.08828c-1.28411,-5.02943 -3.4778,-8.45372 -6.58106,-10.27287c-3.10326,-1.81915 -7.65115,-2.72873 -13.64366,-2.72873h-69.02087l-13.48315,85.07223h67.73676c15.40931,0 26.00321,-7.38363 31.7817,-22.15088z" data-paper-data="{&quot;elementType&quot;:&quot;letter&quot;,&quot;baseline&quot;:73.2,&quot;baselineProportion&quot;:1,&quot;fontSize&quot;:100}"></path></g></g></g></g></g></svg>